<svg width="10" height="10" viewBox="0 0 10 10" fill="none" xmlns="http://www.w3.org/2000/svg">
<g clip-path="url(#clip0)">
<path d="M9.86215 2.52172C9.79278 2.43993 9.69341 2.39317 9.58927 2.39317H7.65774V3.41881C7.65774 3.8901 7.25359 4.27351 6.75684 4.27351C6.26008 4.27351 5.85593 3.8901 5.85593 3.41881V2.39317H4.05413V3.41881C4.05413 3.8901 3.64999 4.27351 3.15323 4.27351C2.65648 4.27351 2.25233 3.8901 2.25233 3.41881V2.39317H0.32089C0.216656 2.39317 0.117286 2.43993 0.0479169 2.52172C-0.0215425 2.60352 -0.0544254 2.71258 -0.0425335 2.82146L0.605665 8.78463C0.617737 9.45693 1.14179 10 1.78431 10H8.12584C8.76828 10 9.29233 9.45693 9.30449 8.78454L9.95269 2.82138C9.96449 2.71257 9.93161 2.60352 9.86215 2.52172Z" fill="#231F20"/>
<path d="M3.15333 3.7607C3.35207 3.7607 3.51369 3.60737 3.51369 3.41882V1.53848C3.51369 1.01053 4.07486 0.683776 4.59477 0.683776H5.49567C6.04288 0.683776 6.39657 1.01925 6.39657 1.53848V3.41882C6.39657 3.60737 6.55829 3.7607 6.75693 3.7607C6.95558 3.7607 7.11729 3.60737 7.11729 3.41882V1.53848C7.11729 0.647024 6.43531 1.52588e-05 5.49567 1.52588e-05H4.59477C3.60126 1.52588e-05 2.79297 0.690186 2.79297 1.53848V3.41882C2.79297 3.60737 2.95459 3.7607 3.15333 3.7607Z" fill="#231F20"/>
</g>
<defs>
<clipPath id="clip0">
<rect width="10" height="10" fill="white"/>
</clipPath>
</defs>
</svg>
