<svg width="16" height="16" viewBox="0 0 16 16" fill="none" xmlns="http://www.w3.org/2000/svg">
<g clip-path="url(#clip0)">
<path d="M6.66671 12C7.85003 11.9998 8.99924 11.6036 9.93137 10.8747L12.862 13.8053L13.8047 12.8627L10.874 9.93201C11.6034 8.99979 11.9998 7.8503 12 6.66668C12 3.72601 9.60737 1.33334 6.66671 1.33334C3.72604 1.33334 1.33337 3.72601 1.33337 6.66668C1.33337 9.60734 3.72604 12 6.66671 12ZM6.66671 2.66668C8.87271 2.66668 10.6667 4.46068 10.6667 6.66668C10.6667 8.87268 8.87271 10.6667 6.66671 10.6667C4.46071 10.6667 2.66671 8.87268 2.66671 6.66668C2.66671 4.46068 4.46071 2.66668 6.66671 2.66668Z" fill="black"/>
</g>
<defs>
<clipPath id="clip0">
<rect width="16" height="16" fill="white"/>
</clipPath>
</defs>
</svg>
